<svg xmlns="http://www.w3.org/2000/svg" version="1.1" xmlns:xlink="http://www.w3.org/1999/xlink" xmlns:svgjs="http://svgjs.dev/svgjs" width="1440" height="800" preserveAspectRatio="none" viewBox="0 0 1440 800"><g mask="url(&quot;#SvgjsMask1032&quot;)" fill="none"><rect width="1440" height="800" x="0" y="0" fill="rgba(38, 38, 38, 1)"></rect><path d="M85 800L885 0L1125 0L325 800z" fill="url(&quot;#SvgjsLinearGradient1033&quot;)"></path><path d="M569.2 800L1369.2 0L1678.2 0L878.2 800z" fill="url(&quot;#SvgjsLinearGradient1033&quot;)"></path><path d="M1399 800L599 0L359 0L1159 800z" fill="url(&quot;#SvgjsLinearGradient1034&quot;)"></path><path d="M934.8 800L134.79999999999995 0L-388.70000000000005 0L411.29999999999995 800z" fill="url(&quot;#SvgjsLinearGradient1034&quot;)"></path><path d="M732.3049866935695 800L1440 92.3049866935695L1440 800z" fill="url(&quot;#SvgjsLinearGradient1033&quot;)"></path><path d="M0 800L707.6950133064305 800L 0 92.3049866935695z" fill="url(&quot;#SvgjsLinearGradient1034&quot;)"></path></g><defs><mask id="SvgjsMask1032"><rect width="1440" height="800" fill="#ffffff"></rect></mask><linearGradient x1="0%" y1="100%" x2="100%" y2="0%" id="SvgjsLinearGradient1033"><stop stop-color="rgba(15, 70, 185, 0.1)" offset="0"></stop><stop stop-opacity="0" stop-color="rgba(15, 70, 185, 0.1)" offset="0.66"></stop></linearGradient><linearGradient x1="100%" y1="100%" x2="0%" y2="0%" id="SvgjsLinearGradient1034"><stop stop-color="rgba(15, 70, 185, 0.1)" offset="0"></stop><stop stop-opacity="0" stop-color="rgba(15, 70, 185, 0.1)" offset="0.66"></stop></linearGradient></defs></svg>